HIERARCHY
ROOT Hips
{
	OFFSET 0.00000 0.00000 0.00000
	CHANNELS 6 Xposition Yposition Zposition Zrotation Yrotation Xrotation 
	JOINT LHipJoint
	{
		OFFSET 0 0 0
		CHANNELS 3 Zrotation Yrotation Xrotation
		JOINT LeftUpLeg
		{
			OFFSET 1.62964 -1.40469 0.78906
			CHANNELS 3 Zrotation Yrotation Xrotation
			JOINT LeftLeg
			{
				OFFSET 2.29640 -6.30932 0.00000
				CHANNELS 3 Zrotation Yrotation Xrotation
				JOINT LeftFoot
				{
					OFFSET 2.29451 -6.30412 0.00000
					CHANNELS 3 Zrotation Yrotation Xrotation
					JOINT LeftToeBase
					{
						OFFSET 0.03611 -0.09921 1.56387
						CHANNELS 3 Zrotation Yrotation Xrotation
						End Site
						{
							OFFSET 0.00000 -0.00000 0.80291
						}
					}
				}
			}
		}
	}
	JOINT RHipJoint
	{
		OFFSET 0 0 0
		CHANNELS 3 Zrotation Yrotation Xrotation
		JOINT RightUpLeg
		{
			OFFSET -1.73712 -1.40469 0.78906
			CHANNELS 3 Zrotation Yrotation Xrotation
			JOINT RightLeg
			{
				OFFSET -2.28137 -6.26801 0.00000
				CHANNELS 3 Zrotation Yrotation Xrotation
				JOINT RightFoot
				{
					OFFSET -2.28681 -6.28298 0.00000
					CHANNELS 3 Zrotation Yrotation Xrotation
					JOINT RightToeBase
					{
						OFFSET -0.15927 -0.43759 1.61103
						CHANNELS 3 Zrotation Yrotation Xrotation
						End Site
						{
							OFFSET -0.00000 -0.00000 0.84630
						}
					}
				}
			}
		}
	}
	JOINT LowerBack
	{
		OFFSET 0 0 0
		CHANNELS 3 Zrotation Yrotation Xrotation
		JOINT Spine
		{
			OFFSET -0.04227 2.04338 -0.00225
			CHANNELS 3 Zrotation Yrotation Xrotation
			JOINT Spine1
			{
				OFFSET -0.02148 2.04482 -0.04273
				CHANNELS 3 Zrotation Yrotation Xrotation
				JOINT Neck
				{
					OFFSET 0 0 0
					CHANNELS 3 Zrotation Yrotation Xrotation
					JOINT Neck1
					{
						OFFSET 0.09180 1.44629 0.19359
						CHANNELS 3 Zrotation Yrotation Xrotation
						JOINT Head
						{
							OFFSET 0.00887 1.40645 0.14750
							CHANNELS 3 Zrotation Yrotation Xrotation
							End Site
							{
								OFFSET -0.00669 1.50671 0.03707
							}
						}
					}
				}
				JOINT LeftShoulder
				{
					OFFSET 0 0 0
					CHANNELS 3 Zrotation Yrotation Xrotation
					JOINT LeftArm
					{
						OFFSET 2.17674 1.86763 -0.06520
						CHANNELS 3 Zrotation Yrotation Xrotation
						JOINT LeftForeArm
						{
							OFFSET 4.65776 -0.00000 0.00000
							CHANNELS 3 Zrotation Yrotation Xrotation
							JOINT LeftHand
							{
								OFFSET 3.55539 -0.00000 0.00000
								CHANNELS 3 Zrotation Yrotation Xrotation
								JOINT LeftFingerBase
								{
									OFFSET 0 0 0
									CHANNELS 3 Zrotation Yrotation Xrotation
									JOINT LeftHandIndex1
									{
										OFFSET 0.70726 -0.00000 0.00000
										CHANNELS 3 Zrotation Yrotation Xrotation
										End Site
										{
											OFFSET 0.57022 -0.00000 0.00000
										}
									}
								}
								JOINT LThumb
								{
									OFFSET 0 0 0
									CHANNELS 3 Zrotation Yrotation Xrotation
									End Site
									{
										OFFSET 0.57892 -0.00000 0.57892
									}
								}
							}
						}
					}
				}
				JOINT RightShoulder
				{
					OFFSET 0 0 0
					CHANNELS 3 Zrotation Yrotation Xrotation
					JOINT RightArm
					{
						OFFSET -2.80694 1.55459 -0.32496
						CHANNELS 3 Zrotation Yrotation Xrotation
						JOINT RightForeArm
						{
							OFFSET -4.71925 -0.00000 -0.00000
							CHANNELS 3 Zrotation Yrotation Xrotation
							JOINT RightHand
							{
								OFFSET -3.56990 -0.00000 0.00000
								CHANNELS 3 Zrotation Yrotation Xrotation
								JOINT RightFingerBase
								{
									OFFSET 0 0 0
									CHANNELS 3 Zrotation Yrotation Xrotation
									JOINT RightHandIndex1
									{
										OFFSET -0.50776 -0.00000 0.00000
										CHANNELS 3 Zrotation Yrotation Xrotation
										End Site
										{
											OFFSET -0.40937 -0.00000 0.00000
										}
									}
								}
								JOINT RThumb
								{
									OFFSET 0 0 0
									CHANNELS 3 Zrotation Yrotation Xrotation
									End Site
									{
										OFFSET -0.41562 -0.00000 0.41562
									}
								}
							}
						}
					}
				}
			}
		}
	}
}
MOTION
Frames: 12
Frame Time: .0083333
8.8322 16.3497 30.954 0 0 0 0 0 0 -21 0 0 0 0 0 0 0 0 0 0 0 0 0 0 21 0 0 0 0 0 0 0 0 0 0 0 0 0 0 0 0 0 0 0 0 0 0 -16 0 0 21 0 0 11 0 0 0 -8 0 0 0 0 0 0 0 0 0 0 0 0 0 0 0 0 0 0 0 0 8 0 0 0 0 0 0 0 0 0 0 0 0 0 0 0 0 0
8.8322 16.3497 30.9540 178.4640 -1.0189 -152.7450 0.0000 0.0000 0.0000 -17.9432 -17.5982 -19.4161 0.1631 2.6018 7.1720 0.2323 -0.8650 -8.8392 3.0676 -10.8037 -31.6207 0.0000 0.0000 0.0000 16.1809 13.9125 -19.4521 -0.0770 -1.7906 4.9272 -1.8612 -0.2573 -25.9178 -1.2557 7.1040 -20.0238 -6.9151 -1.6516 -28.6564 -0.7303 -0.6554 -2.1205 2.6511 -0.9892 12.7986 1.5306 -2.7717 -7.2099 1.8286 -3.9911 -0.8430 0.1917 -2.0292 0.9436 0.0000 0.0000 0.0000 -85.4714 -0.1476 16.8706 10.3142 -17.2295 -1.5667 -0.0000 -0.0000 7.1771 23.4524 -12.1120 -5.2011 -7.1250 0.0000 -0.0000 -2.6139 16.8224 1.7474 0.0000 0.0000 0.0000 94.0897 -4.1807 6.7106 -15.8862 25.3661 -3.5971 0.0000 0.0000 0.7457 -12.5651 -54.8351 10.3266 7.1250 -0.0000 -0.0000 73.9287 -76.3675 -60.0422
8.8297 16.3442 30.9480 178.5160 -0.9643 -152.5270 0.0000 0.0000 0.0000 -17.8215 -17.7509 -19.5607 0.1602 2.5788 7.1082 0.2391 -0.7584 -8.9994 2.7179 -10.2237 -29.7041 0.0000 0.0000 0.0000 16.1865 13.9736 -19.6786 -0.0779 -1.8009 4.9556 -1.8721 -0.2224 -25.9818 -1.1727 6.8737 -19.3418 -6.8624 -1.5750 -28.8469 -0.7001 -0.5930 -2.2390 2.6736 -0.9659 12.7437 1.4866 -2.8462 -7.0796 1.7102 -4.0766 -0.8871 0.1629 -2.0731 0.9056 0.0000 0.0000 0.0000 -85.5439 -0.0076 16.9869 10.3007 -17.2085 -1.5627 -0.0000 -0.0000 7.1625 23.1818 -12.2512 -5.1921 -7.1250 0.0000 -0.0000 -2.8088 16.6996 1.8855 0.0000 0.0000 0.0000 94.0195 -4.4471 6.9213 -16.0282 25.5589 -3.6581 0.0000 0.0000 0.1384 -13.1603 -53.0610 10.5855 7.1250 -0.0000 -0.0000 66.5648 -76.1926 -52.9769
8.8280 16.3409 30.9450 178.5770 -0.9439 -152.4040 0.0000 0.0000 0.0000 -17.7147 -17.8107 -19.6628 0.1591 2.5699 7.0835 0.2357 -0.6553 -8.9614 2.6448 -10.0965 -29.2898 0.0000 0.0000 0.0000 16.2597 13.8601 -19.8887 -0.0785 -1.8074 4.9737 -1.8576 -0.0907 -25.8367 -1.1342 6.7639 -19.0177 -6.7715 -1.5404 -28.9746 -0.6969 -0.5799 -2.2747 2.6299 -0.9595 12.7597 1.3944 -2.8257 -6.9252 1.7679 -4.0391 -1.0392 0.2010 -2.0570 0.8346 0.0000 -0.0000 0.0000 -85.5151 0.0747 17.0962 10.3280 -17.2510 -1.5708 -0.0000 -0.0000 7.0526 22.9074 -12.3516 -5.1650 -7.1250 0.0000 -0.0000 -3.0042 16.6191 2.0223 0.0000 -0.0000 0.0000 94.0053 -4.5382 7.0746 -16.1830 25.7682 -3.7252 0.0000 0.0000 0.2748 -13.3210 -54.6589 10.9318 7.1250 -0.0000 -0.0000 73.0472 -76.6241 -59.4873
8.8282 16.3394 30.9446 178.6210 -0.9601 -152.3120 0.0000 0.0000 0.0000 -17.6127 -17.8242 -19.7947 0.1610 2.5852 7.1261 0.2337 -0.6599 -8.9207 2.5739 -9.9710 -28.8828 0.0000 0.0000 0.0000 16.2852 13.9423 -19.9872 -0.0789 -1.8119 4.9861 -1.8568 -0.1420 -25.8487 -1.0854 6.6215 -18.5988 -6.7562 -1.5513 -29.0600 -0.6614 -0.6009 -2.2821 2.6502 -0.9712 12.7922 1.2234 -2.8183 -6.5428 1.9115 -4.0110 -1.4613 0.2840 -2.0515 0.6443 -0.0000 -0.0000 0.0000 -85.5472 0.0823 17.0235 10.3194 -17.2377 -1.5683 -0.0000 -0.0000 7.1245 22.6572 -12.5043 -5.1643 -7.1250 0.0000 -0.0000 -3.1848 16.4803 2.1539 -0.0000 -0.0000 0.0000 93.9656 -4.5895 7.0834 -16.0944 25.6484 -3.6867 0.0000 0.0000 0.0241 -13.1342 -52.9444 10.5485 7.1250 -0.0000 -0.0000 66.1154 -76.1485 -52.5188
8.8291 16.3395 30.9461 178.6710 -0.9766 -152.2610 0.0000 0.0000 0.0000 -17.5005 -17.8321 -19.9108 0.1641 2.6102 7.1953 0.2384 -0.7344 -8.9910 2.5076 -9.8517 -28.4979 0.0000 0.0000 0.0000 16.3037 14.1371 -20.0316 -0.0821 -1.8483 5.0865 -1.8349 -0.2816 -25.7417 -1.1618 6.8429 -19.2507 -6.7290 -1.5546 -29.0815 -0.6410 -0.6159 -2.2864 2.6514 -0.9774 12.7989 1.1722 -2.8419 -6.4039 2.0125 -4.0378 -1.6052 0.3261 -2.0676 0.5796 -0.0000 -0.0000 0.0000 -85.5522 0.0494 16.9000 10.2808 -17.1777 -1.5569 -0.0000 -0.0000 7.2388 22.4141 -12.6922 -5.1781 -7.1250 0.0000 -0.0000 -3.3618 16.3034 2.2869 -0.0000 -0.0000 0.0000 93.9587 -4.5800 7.1433 -16.0950 25.6493 -3.6870 0.0000 -0.0000 -0.0393 -13.0690 -52.8070 10.4768 7.1250 -0.0000 -0.0000 65.6041 -76.0819 -51.9814
8.8302 16.3408 30.9499 178.7030 -0.9946 -152.2610 0.0000 0.0000 0.0000 -17.4179 -17.8384 -19.9835 0.1675 2.6366 7.2687 0.2400 -0.7496 -9.0177 2.6193 -10.0517 -29.1444 0.0000 0.0000 0.0000 16.3391 14.1736 -20.1050 -0.0860 -1.8916 5.2062 -1.0675 -2.3330 -20.4885 -2.8797 10.4978 -30.6042 -6.7021 -1.5589 -28.9988 -0.6413 -0.6366 -2.3027 2.6307 -0.9832 12.7453 1.2265 -2.8531 -6.4478 2.0093 -4.0573 -1.5296 0.3144 -2.0758 0.6093 -0.0000 0.0000 0.0000 -85.5022 0.0643 16.9008 10.2715 -17.1631 -1.5541 -0.0000 -0.0000 7.1142 21.8205 -13.0201 -5.1544 -7.1250 0.0000 -0.0000 -3.7866 16.0133 2.6009 -0.0000 0.0000 0.0000 93.9973 -4.5473 7.0885 -16.0656 25.6096 -3.6743 0.0000 0.0000 0.0327 -13.0638 -52.8451 10.4778 7.1250 -0.0000 -0.0000 65.7554 -76.0915 -52.1294
8.8303 16.3417 30.9522 178.6400 -0.9764 -152.2430 0.0000 0.0000 0.0000 -17.4853 -17.8310 -20.0309 0.1685 2.6445 7.2904 0.2361 -0.7283 -8.9480 2.6957 -10.1854 -29.5792 0.0000 0.0000 0.0000 16.2363 14.1964 -20.1346 -0.0853 -1.8839 5.1850 -1.0644 -2.4085 -20.4956 -2.8695 10.4807 -30.5477 -6.7947 -1.5856 -28.9505 -0.6395 -0.6475 -2.3148 2.6793 -0.9923 12.7101 1.2394 -2.8413 -6.5625 1.9844 -4.0448 -1.4154 0.3020 -2.0669 0.6634 -0.0000 0.0000 0.0000 -85.4953 0.1322 17.0428 10.3099 -17.2229 -1.5655 -0.0000 -0.0000 6.8678 21.5546 -12.8926 -5.0368 -7.1250 0.0000 -0.0000 -3.9648 16.1755 2.7099 -0.0000 0.0000 0.0000 93.9896 -4.5340 6.9715 -16.0373 25.5712 -3.6620 0.0000 0.0000 0.1774 -12.9880 -52.8177 10.4125 7.1250 -0.0000 -0.0000 65.6810 -76.0539 -52.0213
8.8295 16.3403 30.9510 178.5920 -0.9508 -152.1980 0.0000 0.0000 0.0000 -17.5516 -17.8218 -20.0952 0.1694 2.6516 7.3103 0.2341 -0.7269 -8.9097 2.6825 -10.1623 -29.5041 0.0000 0.0000 0.0000 16.1551 14.1219 -20.1985 -0.0838 -1.8672 5.1388 -1.0621 -2.2968 -20.4222 -2.7587 10.2938 -29.9336 -6.8439 -1.5908 -28.9916 -0.6552 -0.6357 -2.3139 2.6922 -0.9909 12.7277 1.2581 -2.8385 -6.6106 1.9940 -4.0457 -1.4343 0.3013 -2.0683 0.6654 0.0000 0.0000 0.0000 -85.4852 0.1814 17.1106 10.3366 -17.2644 -1.5734 -0.0000 -0.0000 6.8053 21.5597 -12.6507 -4.9456 -7.1250 0.0000 -0.0000 -3.9515 16.4324 2.6787 0.0000 0.0000 0.0000 94.0018 -4.5104 6.8706 -16.0188 25.5461 -3.6541 0.0000 0.0000 0.2883 -12.9082 -52.7063 10.3328 7.1250 -0.0000 -0.0000 65.2832 -75.9886 -51.5899
8.8298 16.3383 30.9491 178.6480 -0.9563 -152.1710 0.0000 0.0000 0.0000 -17.4789 -17.7901 -20.1568 0.1707 2.6618 7.3387 0.2360 -0.7524 -8.9402 2.7484 -10.2763 -29.8760 0.0000 0.0000 0.0000 16.2411 14.0307 -20.2950 -0.0856 -1.8866 5.1925 -1.0663 -2.1678 -20.4000 -2.8062 10.3746 -30.1985 -6.7890 -1.5806 -29.0177 -0.6385 -0.6419 -2.3208 2.6778 -0.9917 12.7329 1.2736 -2.8347 -6.6178 2.0023 -4.0435 -1.4735 0.3016 -2.0686 0.6542 -0.0000 -0.0000 0.0000 -85.4966 0.2325 17.0105 10.3446 -17.2768 -1.5757 -0.0000 -0.0000 6.8526 21.6385 -12.5764 -4.9369 -7.1250 0.0000 -0.0000 -3.8940 16.5039 2.6335 -0.0000 -0.0000 0.0000 94.0109 -4.4935 6.8106 -16.0116 25.5363 -3.6509 0.0000 0.0000 0.3834 -12.8418 -52.6559 10.2723 7.1250 -0.0000 -0.0000 65.1187 -75.9472 -51.3963
8.8289 16.3376 30.9489 178.6650 -0.9474 -152.1300 0.0000 0.0000 0.0000 -17.4588 -17.7409 -20.2277 0.1708 2.6621 7.3394 0.2369 -0.8162 -8.9401 2.7751 -10.3218 -30.0253 0.0000 0.0000 0.0000 16.2434 14.1419 -20.3380 -0.0877 -1.9097 5.2562 -1.0637 -2.2697 -20.4239 -2.9095 10.5470 -30.7669 -6.7904 -1.6113 -29.0343 -0.5958 -0.6891 -2.3374 2.7063 -1.0147 12.7266 1.2707 -2.8193 -6.6728 1.9667 -4.0228 -1.4079 0.2902 -2.0568 0.6832 -0.0000 -0.0000 0.0000 -85.5665 0.2586 16.7824 10.3402 -17.2700 -1.5744 -0.0000 -0.0000 6.8692 21.5622 -12.7077 -4.9681 -7.1250 0.0000 -0.0000 -3.9520 16.3716 2.6843 -0.0000 -0.0000 0.0000 93.9292 -4.5130 6.9263 -16.0253 25.5549 -3.6569 0.0000 0.0000 0.3955 -12.7998 -52.6788 10.2414 7.1250 -0.0000 -0.0000 65.2260 -75.9382 -51.4841
8.8259 16.3386 30.9493 178.5920 -0.9348 -152.0780 0.0000 0.0000 0.0000 -17.5753 -17.6197 -20.3772 0.1746 2.6918 7.4217 0.2363 -1.0055 -8.8823 2.6649 -10.1318 -29.4045 0.0000 0.0000 0.0000 16.1390 14.1626 -20.3570 -0.0869 -1.9019 5.2345 -1.0572 -2.3357 -20.3954 -2.9148 10.5558 -30.7960 -6.8456 -1.6439 -29.0610 -0.6061 -0.7132 -2.3384 2.7151 -1.0297 12.7389 1.2083 -2.8428 -6.4162 2.0911 -4.0475 -1.7107 0.3448 -2.0761 0.5499 -0.0000 0.0000 0.0000 -85.5809 0.1986 16.6080 10.3023 -17.2110 -1.5632 -0.0000 -0.0000 6.9112 21.4182 -12.9078 -5.0077 -7.1250 0.0000 -0.0000 -4.0596 16.1729 2.7752 -0.0000 0.0000 0.0000 93.8882 -4.4969 6.9660 -16.0171 25.5439 -3.6534 0.0000 0.0000 0.4658 -12.7454 -52.6063 10.1876 7.1250 -0.0000 -0.0000 64.9724 -75.8942 -51.2070
